<?xml version="1.0" standalone="no"?>
<!DOCTYPE svg PUBLIC "-//W3C//DTD SVG 20010904//EN"
 "http://www.w3.org/TR/2001/REC-SVG-20010904/DTD/svg10.dtd">
<svg version="1.0" xmlns="http://www.w3.org/2000/svg"
 width="640.000000pt" height="640.000000pt" viewBox="0 0 640.000000 640.000000"
 preserveAspectRatio="xMidYMid meet">
<metadata>
Created by potrace 1.11, written by Peter Selinger 2001-2013
</metadata>
<g transform="translate(0.000000,640.000000) scale(0.100000,-0.100000)"
fill="#000000" stroke="none">
<path d="M4245 5997 c-103 -16 -261 -80 -344 -139 -14 -10 -21 -21 -17 -25 4
-4 10 -3 14 2 18 25 288 135 332 135 16 0 12 -17 -12 -43 -13 -13 -52 -59 -88
-102 -36 -43 -74 -88 -85 -99 -11 -11 -28 -31 -37 -45 -10 -15 -33 -44 -53
-66 -41 -46 -155 -215 -155 -230 0 -5 -14 -26 -30 -45 -30 -35 -97 -163 -120
-230 -7 -19 -16 -44 -21 -55 -4 -11 -15 -47 -23 -80 -17 -69 -33 -115 -41
-115 -3 0 -10 11 -15 24 -7 18 -14 23 -29 19 -12 -3 -21 -7 -21 -10 0 -7 22
-47 29 -53 3 -3 11 -14 17 -25 16 -29 49 -31 68 -3 47 68 172 234 180 240 6 4
8 10 4 13 -10 11 -47 -18 -58 -45 -16 -39 -87 -103 -105 -96 -12 4 -14 10 -5
25 5 11 10 38 10 61 0 25 9 55 23 78 13 20 33 57 45 82 12 25 33 63 47 85 14
22 31 51 38 65 20 42 70 118 105 161 17 23 32 47 32 54 0 7 13 27 29 44 17 18
33 42 37 54 3 12 23 38 44 57 21 19 64 64 95 100 31 36 86 95 121 131 57 58
79 92 57 88 -5 -1 -35 -6 -68 -12z"/>
<path d="M3825 5806 c-27 -12 -58 -41 -123 -112 -40 -45 -102 -131 -102 -144
0 -7 -11 -23 -24 -35 -21 -19 -24 -34 -30 -126 -4 -57 -12 -157 -18 -222 -7
-80 -7 -122 0 -129 7 -7 12 22 16 89 18 277 42 354 159 505 34 45 71 92 82
107 11 14 23 28 28 30 5 2 20 14 35 27 30 26 22 30 -23 10z"/>
<path d="M3105 5179 c-105 -45 -263 -123 -348 -173 -88 -50 -208 -116 -214
-116 -7 0 28 60 52 88 29 34 31 44 10 36 -8 -4 -25 -23 -38 -43 -79 -131 -178
-229 -262 -261 -33 -13 -44 9 -51 102 -3 40 -11 98 -17 128 l-12 55 -3 -43
c-2 -24 2 -66 7 -93 6 -28 11 -80 11 -117 0 -63 -2 -68 -30 -87 -16 -11 -30
-23 -30 -27 0 -9 71 20 91 38 8 8 19 14 24 14 5 0 19 10 32 22 20 19 26 20 48
8 13 -7 25 -20 27 -28 2 -10 12 -2 29 24 15 22 42 56 60 75 19 20 41 45 50 55
36 41 96 86 154 115 33 17 74 37 90 46 17 9 44 22 60 31 17 8 60 30 97 48 36
19 71 34 77 34 6 0 33 14 59 30 39 24 61 30 104 30 l56 0 73 -75 c40 -41 76
-75 81 -75 21 0 2 29 -65 98 -69 70 -77 75 -123 79 -35 2 -64 -3 -99 -18z"/>
<path d="M3883 5160 c-17 -12 -41 -37 -53 -57 l-21 -37 42 38 c39 36 45 38 94
34 59 -5 75 -15 209 -136 26 -24 50 -42 52 -39 3 2 19 -10 38 -27 18 -17 62
-56 98 -86 35 -30 87 -84 114 -119 50 -66 96 -120 149 -176 17 -17 68 -74 115
-126 47 -52 126 -134 175 -184 50 -49 117 -120 149 -157 32 -38 64 -68 72 -68
8 0 14 -7 14 -15 0 -8 8 -19 19 -24 27 -15 45 -104 110 -566 21 -145 31 -226
37 -283 2 -18 7 -47 12 -65 5 -17 9 -57 11 -87 2 -62 13 -133 41 -267 11 -51
20 -106 20 -123 0 -60 -47 -15 -76 74 -9 27 -30 78 -46 113 -24 55 -31 63 -44
52 -12 -10 -14 -42 -13 -176 1 -136 3 -162 14 -153 8 6 14 19 14 28 4 73 18
137 30 137 7 0 27 -25 43 -55 16 -30 36 -58 44 -63 7 -4 14 -14 14 -21 0 -7 9
-21 20 -31 17 -16 21 -16 35 -2 17 18 15 80 -5 157 -6 25 -12 62 -12 82 1 21
-3 40 -9 43 -5 4 -9 24 -9 45 0 49 -19 140 -30 140 -4 0 -10 48 -14 108 -9
140 -10 149 -18 158 -5 4 -8 35 -8 68 0 34 -5 79 -11 101 -6 22 -15 100 -20
173 -5 74 -14 142 -19 152 -6 10 -10 40 -10 67 0 26 -7 61 -15 77 -8 15 -15
41 -15 57 0 30 -56 117 -77 118 -6 1 -18 9 -25 19 -26 37 -134 156 -177 196
-51 48 -53 49 -214 224 -67 74 -124 140 -127 147 -3 7 -34 44 -70 83 -36 38
-74 81 -85 96 -11 15 -26 32 -34 39 -8 7 -44 40 -80 74 -87 82 -136 123 -148
123 -6 0 -17 8 -26 18 -9 10 -38 29 -64 42 -27 12 -57 34 -68 47 -29 34 -100
41 -142 13z"/>
<path d="M2703 5148 c-23 -30 -24 -41 -2 -21 12 12 20 25 17 28 -3 3 -10 0
-15 -7z"/>
<path d="M2202 5110 c-1 -19 3 -53 7 -75 l9 -40 0 35 c1 19 -3 53 -7 75 l-9
40 0 -35z"/>
<path d="M2660 5089 c0 -5 5 -7 10 -4 6 3 10 8 10 11 0 2 -4 4 -10 4 -5 0 -10
-5 -10 -11z"/>
<path d="M2636 5054 c-5 -14 -4 -15 9 -4 17 14 19 20 6 20 -5 0 -12 -7 -15
-16z"/>
<path d="M3420 4995 c0 -6 13 -26 30 -45 16 -19 29 -29 30 -23 0 7 -13 27 -30
45 -16 18 -30 28 -30 23z"/>
<path d="M3261 4917 c-6 -8 -14 -29 -17 -48 -4 -19 -17 -55 -30 -80 -13 -26
-29 -68 -35 -95 -7 -27 -15 -51 -18 -54 -4 -3 -13 -30 -20 -60 -7 -30 -24 -86
-37 -124 -25 -71 -30 -102 -15 -77 13 20 83 43 95 31 6 -6 30 -10 53 -10 24 0
78 -7 119 -16 42 -8 80 -14 86 -12 5 2 0 15 -11 30 -12 14 -21 31 -21 36 0 5
-11 17 -24 26 -24 15 -25 15 -28 -7 -3 -19 -11 -23 -77 -31 -55 -7 -76 -6 -79
2 -2 7 -13 12 -24 12 -19 0 -20 4 -13 58 4 31 11 65 16 74 5 9 9 28 9 42 0 21
5 26 26 26 14 0 23 4 19 9 -3 5 -1 12 4 15 5 3 21 -8 35 -25 27 -31 34 -59 16
-59 -5 0 -10 -4 -10 -10 0 -5 10 -10 23 -10 12 0 37 -13 55 -30 18 -16 41 -30
51 -30 9 0 22 -5 27 -10 7 -7 9 -1 6 20 -2 18 -14 38 -27 46 -13 8 -26 25 -29
37 -3 12 -23 42 -45 67 -22 25 -41 48 -41 53 0 4 -6 7 -14 7 -16 0 -29 41 -20
64 3 9 2 16 -4 16 -6 0 -12 -5 -14 -12 -3 -7 -7 -8 -9 -3 -3 6 5 21 18 34 l23
24 0 -31 c0 -30 2 -32 39 -32 25 0 41 -5 45 -15 7 -18 -3 -45 -16 -45 -5 0 -6
-5 -2 -11 4 -8 11 -4 19 11 l13 24 15 -31 c9 -17 25 -33 37 -36 13 -3 18 -10
14 -21 -4 -10 -1 -16 9 -16 8 0 28 -28 46 -63 31 -63 39 -93 21 -82 -5 3 -10
1 -10 -5 0 -8 10 -10 28 -7 l27 6 -27 -12 c-37 -15 -35 -24 7 -42 20 -8 43
-21 51 -30 27 -26 59 -18 95 25 42 49 76 65 112 51 28 -11 33 -21 18 -36 -14
-16 -24 -75 -12 -75 5 0 14 6 18 13 4 7 26 26 48 43 22 16 45 35 51 43 7 10
21 12 42 8 18 -4 32 -5 32 -3 0 9 -33 82 -39 86 -4 3 -13 30 -20 60 -14 54
-19 69 -60 161 -11 26 -23 59 -27 73 -13 52 -38 31 -86 -71 -26 -54 -52 -116
-59 -138 -7 -22 -17 -44 -21 -50 -4 -5 -8 -17 -8 -27 0 -37 -25 -98 -40 -98
-21 0 -57 41 -115 130 -26 41 -69 102 -94 135 -59 77 -91 124 -91 134 0 8 -53
61 -62 61 -3 0 -11 -6 -17 -13z m74 -107 c3 -5 -1 -10 -10 -10 -9 0 -13 5 -10
10 3 6 8 10 10 10 2 0 7 -4 10 -10z m503 -88 c2 -20 8 -29 16 -26 9 3 16 -7
20 -28 6 -28 3 -37 -24 -60 -46 -42 -115 -33 -77 10 11 12 13 22 6 34 -7 12
-2 24 16 46 16 19 23 36 18 47 -4 13 -2 16 8 13 8 -2 15 -19 17 -36z m-57
-169 c21 6 21 6 -1 -18 -27 -29 -50 -22 -50 14 0 36 12 47 22 20 6 -15 14 -20
29 -16z m109 -63 c0 -16 -5 -30 -11 -30 -11 0 -44 29 -38 34 5 4 43 25 47 26
1 0 2 -13 2 -30z m-320 -40 c0 -5 -2 -10 -4 -10 -3 0 -8 5 -11 10 -3 6 -1 10
4 10 6 0 11 -4 11 -10z"/>
<path d="M3835 4640 c3 -5 8 -10 11 -10 2 0 4 5 4 10 0 6 -5 10 -11 10 -5 0
-7 -4 -4 -10z"/>
<path d="M887 4860 c-42 -8 -61 -20 -31 -20 47 0 124 14 124 21 0 10 -38 10
-93 -1z"/>
<path d="M1280 4860 c0 -5 14 -10 30 -10 53 0 198 -41 290 -83 80 -36 273
-160 318 -204 7 -7 19 -13 25 -13 30 1 -123 115 -261 194 -99 57 -132 68 -312
110 -78 18 -90 19 -90 6z"/>
<path d="M2090 4574 c-30 -20 -69 -38 -87 -41 -20 -4 -30 -10 -27 -18 3 -7 -7
-25 -23 -39 -15 -14 -23 -26 -17 -26 7 0 17 7 24 15 17 20 32 19 64 -6 33 -26
44 -19 22 13 -23 33 -21 40 27 70 52 33 94 68 81 68 -5 0 -34 -16 -64 -36z"/>
<path d="M2325 4575 c-15 -20 -41 -57 -58 -83 -105 -162 -168 -258 -175 -267
-4 -5 -20 -31 -35 -57 -15 -26 -33 -53 -40 -60 -7 -7 -27 -35 -44 -63 -18 -27
-37 -55 -42 -62 -6 -6 -42 -60 -80 -120 -39 -59 -75 -113 -81 -120 -5 -7 -10
-16 -10 -20 -1 -4 -14 -24 -30 -43 -17 -19 -30 -38 -30 -44 0 -5 -11 -24 -26
-43 -53 -70 -69 -143 -79 -358 -3 -77 -10 -170 -15 -206 -12 -82 -50 -259 -60
-278 -12 -23 -29 20 -39 100 -5 39 -12 73 -15 77 -19 18 12 -211 38 -284 13
-38 12 -46 -16 -130 -16 -49 -35 -102 -43 -119 -29 -65 -65 -187 -65 -223 0
-68 21 -164 45 -211 30 -58 31 -52 0 74 -23 97 -24 106 -10 166 18 82 35 141
45 154 10 14 70 206 70 226 0 8 4 19 9 25 5 5 15 54 21 109 6 55 20 139 30
186 19 86 33 213 45 409 7 123 36 239 69 283 13 18 32 49 42 71 9 21 29 52 44
67 14 16 37 48 51 70 13 22 34 53 45 68 12 14 32 45 44 69 12 23 25 42 29 42
3 0 19 23 36 50 16 28 33 50 37 50 4 0 8 6 8 13 0 7 20 41 45 74 24 34 52 77
63 95 10 18 48 78 84 133 81 123 130 206 125 211 -2 2 -16 -12 -32 -31z"/>
<path d="M3451 4566 c-10 -12 -8 -13 8 -9 12 3 21 9 21 14 0 14 -16 11 -29 -5z"/>
<path d="M3468 4473 c7 -3 16 -2 19 1 4 3 -2 6 -13 5 -11 0 -14 -3 -6 -6z"/>
<path d="M1889 4414 c-13 -14 -17 -23 -9 -19 13 5 46 45 37 45 -2 0 -14 -11
-28 -26z"/>
<path d="M1801 4335 c-22 -24 -41 -49 -41 -53 0 -5 -12 -25 -27 -44 -16 -20
-35 -46 -43 -58 -8 -12 -28 -41 -44 -63 -24 -35 -90 -166 -186 -372 -41 -87
-70 -221 -70 -317 0 -86 29 -355 41 -382 6 -14 8 5 4 54 -3 41 -8 159 -12 262
-6 183 -5 188 21 275 25 80 59 164 89 218 6 11 35 69 65 130 30 60 65 124 78
141 13 17 24 35 24 41 0 5 9 18 20 28 11 10 20 23 20 30 0 7 27 41 60 76 33
35 60 67 60 72 0 17 -20 4 -59 -38z"/>
<path d="M4030 4362 c0 -13 50 -175 59 -192 5 -9 12 -30 16 -48 4 -18 18 -61
31 -95 l24 -62 -52 -46 c-39 -35 -50 -50 -42 -59 8 -8 23 -5 58 12 l47 23 19
-25 c10 -14 21 -22 24 -20 5 6 -23 113 -49 180 -9 25 -28 79 -42 120 -14 41
-36 99 -49 128 -13 29 -24 59 -24 67 0 7 -4 17 -10 20 -5 3 -10 2 -10 -3z"/>
<path d="M3035 4240 c-4 -23 -5 -44 -2 -47 3 -3 10 12 16 33 6 22 7 42 2 47
-5 5 -12 -9 -16 -33z"/>
<path d="M2961 3968 c-5 -13 -14 -43 -20 -68 -6 -25 -22 -92 -36 -150 -15 -58
-30 -127 -35 -155 -4 -27 -16 -79 -25 -115 -40 -153 -65 -289 -54 -296 4 -2
10 10 14 28 15 80 29 124 43 136 24 19 186 16 228 -4 46 -22 98 -84 114 -136
25 -81 56 -96 47 -23 -9 60 -27 92 -79 144 -59 58 -81 68 -179 81 -46 6 -92
13 -101 16 -29 8 -23 80 13 169 4 11 11 36 14 55 18 102 40 177 55 194 16 17
24 17 83 7 36 -6 78 -18 94 -26 38 -20 53 -19 53 4 0 27 -63 79 -137 112 -35
15 -63 33 -63 39 0 19 -20 10 -29 -12z"/>
<path d="M4212 3830 c0 -8 6 -31 13 -50 l13 -35 1 33 c1 17 -3 32 -8 32 -5 0
-12 8 -14 18 -3 11 -5 12 -5 2z"/>
<path d="M4240 3708 c0 -14 7 -31 16 -39 13 -11 14 -9 8 17 -9 40 -24 54 -24
22z"/>
<path d="M4269 3646 c-8 -8 24 -126 33 -126 11 0 10 17 -3 59 -20 64 -24 72
-30 67z"/>
<path d="M4317 3455 c3 -22 10 -44 14 -49 5 -6 9 -19 9 -29 0 -17 -6 -19 -57
-14 -85 9 -128 -3 -182 -48 -55 -46 -120 -132 -123 -165 -5 -39 20 -33 49 10
15 23 51 67 79 96 49 53 52 54 105 53 102 -1 176 -50 178 -119 1 -14 15 -70
32 -125 17 -55 37 -125 45 -155 8 -30 19 -64 23 -75 20 -47 61 -205 70 -270 6
-41 16 -74 25 -81 14 -10 14 -13 -2 -26 -9 -8 -39 -27 -65 -42 -41 -23 -59
-27 -122 -27 -84 0 -117 12 -202 70 -62 42 -93 51 -93 28 0 -31 130 -113 204
-129 79 -17 174 -6 237 28 54 29 169 138 169 159 0 7 9 20 20 30 24 22 19 37
60 -180 17 -93 39 -203 47 -243 9 -41 13 -90 9 -112 -5 -34 -92 -222 -142
-308 -10 -18 -51 -77 -90 -130 -95 -131 -191 -212 -374 -318 -33 -19 -88 -51
-122 -71 l-63 -37 -207 -5 c-238 -7 -249 -11 -281 -97 -29 -77 -29 -77 -137
-71 -52 3 -103 8 -113 12 -10 4 -23 26 -29 50 -6 23 -17 50 -23 58 -12 16
-130 30 -365 42 -125 7 -161 17 -250 74 -69 45 -183 137 -234 190 l-39 40 2
108 c2 107 12 226 31 353 6 36 15 103 20 150 18 146 53 355 61 364 4 4 25 -6
46 -23 150 -121 420 -99 603 47 51 41 61 53 54 64 -11 18 -42 6 -75 -28 -67
-71 -206 -117 -349 -117 -98 1 -165 25 -234 85 l-40 35 12 89 c39 307 54 407
62 430 6 14 10 41 10 60 0 28 5 36 25 44 27 10 30 21 15 51 -20 37 -35 20 -53
-58 -10 -43 -17 -86 -17 -95 0 -9 -6 -41 -14 -71 -8 -29 -19 -105 -25 -168 -7
-62 -19 -148 -26 -189 -32 -162 -44 -240 -59 -365 -9 -71 -21 -173 -27 -225
-6 -52 -13 -117 -14 -143 -4 -58 -22 -107 -41 -107 -11 0 -14 -20 -16 -82 -4
-175 -4 -228 2 -228 8 0 4 -83 -5 -111 -12 -35 -23 -20 -39 55 -9 40 -23 82
-31 92 -8 10 -15 29 -15 40 0 12 -7 35 -15 50 -8 16 -15 46 -15 67 0 20 -4 37
-8 37 -7 0 -25 70 -35 140 -3 20 -5 18 -6 -8 -1 -29 -3 -32 -20 -22 -26 13
-26 13 -54 -12 -13 -13 -27 -40 -31 -60 -4 -21 -10 -38 -14 -38 -4 0 -16 -16
-27 -35 -25 -48 -47 -42 -57 14 -4 24 -14 51 -22 60 -8 9 -17 45 -20 81 -2 36
-12 94 -21 130 -9 36 -24 121 -33 188 -10 72 -21 120 -26 115 -5 -5 -6 12 -3
40 4 26 3 47 -1 47 -9 0 -34 169 -35 228 0 24 -5 32 -19 32 -16 0 -18 9 -18
65 0 36 9 105 21 153 11 48 26 114 34 147 24 100 28 135 16 135 -11 0 -23 -41
-41 -145 -7 -38 -16 -81 -20 -95 -4 -14 -17 -56 -29 -95 -53 -181 -87 -283
-103 -317 -19 -39 -24 -83 -9 -74 5 3 19 32 31 63 48 122 70 163 86 163 13 0
15 -8 11 -42 -7 -59 -16 -99 -29 -125 -11 -22 -9 -27 17 -73 8 -14 15 -43 15
-65 0 -26 3 -35 9 -26 13 21 19 2 31 -100 6 -52 15 -116 20 -144 5 -27 16 -89
24 -136 24 -134 56 -263 67 -269 5 -4 10 -29 11 -56 1 -27 8 -55 16 -63 7 -8
11 -23 9 -33 -4 -14 -2 -18 10 -14 8 3 21 6 29 6 8 0 14 8 14 18 0 11 9 27 20
37 15 14 17 20 8 26 -7 4 -9 11 -5 15 4 4 18 -3 32 -16 14 -13 25 -18 25 -12
0 7 -4 12 -9 12 -9 0 -23 71 -15 79 3 3 10 -1 15 -9 8 -11 9 -7 5 17 -3 21 -1
33 9 36 7 3 15 16 17 28 2 12 9 24 16 27 8 2 12 -11 12 -47 0 -39 4 -51 15
-51 9 0 15 -9 15 -25 0 -15 7 -40 16 -57 19 -37 24 -32 -106 -91 -151 -67
-235 -119 -313 -190 -53 -49 -58 -56 -58 -97 0 -25 1 -58 3 -73 3 -30 -7 -35
-152 -78 -25 -7 -52 -19 -61 -26 -8 -7 -20 -13 -26 -13 -5 0 -30 -20 -56 -45
-45 -45 -45 -46 -40 -98 4 -46 2 -55 -18 -73 -13 -11 -55 -29 -94 -39 -38 -9
-89 -26 -112 -37 -38 -17 -47 -18 -73 -6 -27 11 -42 37 -22 38 20 2 105 29 90
29 -38 2 -15 28 53 58 38 18 75 33 81 33 6 0 8 9 5 20 -3 11 -1 18 4 14 5 -3
9 -1 9 4 0 5 10 14 22 20 15 7 17 11 8 11 -8 1 -20 16 -26 34 -6 17 -15 41
-19 51 -5 12 -5 17 1 13 20 -12 2 77 -19 93 -15 12 -21 31 -23 66 -1 27 -5 64
-9 83 -6 27 -5 32 6 26 12 -7 12 -6 1 7 -13 16 -7 48 9 48 4 0 6 7 3 15 -4 10
0 15 14 15 11 0 22 -6 25 -12 3 -10 9 -10 26 0 11 6 28 12 36 12 9 0 15 9 15
21 0 18 5 20 38 16 20 -2 29 -2 20 0 -27 6 -22 21 5 16 13 -3 34 4 50 17 23
19 26 24 15 38 -11 13 -10 14 14 9 22 -6 26 -4 22 8 -6 13 6 20 28 16 4 0 17
12 29 28 14 19 27 27 40 24 15 -4 18 -2 12 12 -5 15 -2 17 16 12 17 -4 21 -2
17 9 -3 8 -9 21 -12 29 -7 17 11 21 19 5 3 -6 4 -5 3 2 -3 18 -56 30 -56 13 0
-22 -89 -80 -256 -166 -191 -98 -244 -143 -244 -204 0 -23 9 -54 20 -73 31
-51 120 -252 120 -270 0 -10 -18 -25 -43 -36 -38 -18 -102 -59 -212 -138 -22
-16 -67 -46 -100 -68 -96 -63 -145 -114 -145 -150 0 -32 29 -106 60 -150 27
-40 53 -125 47 -152 -11 -42 -63 -56 -262 -68 -136 -9 -211 -19 -304 -42 -130
-31 -229 -63 -246 -80 -13 -14 241 -4 276 10 14 6 46 11 70 13 24 1 49 5 54 8
20 12 310 16 353 6 15 -4 22 -1 22 10 0 22 7 19 48 -20 l37 -35 1188 0 1187 0
0 34 c0 18 3 48 6 65 7 31 8 32 58 29 l51 -3 3 -62 c3 -55 6 -63 22 -63 17 0
20 7 20 49 0 67 7 81 40 81 35 0 47 -15 62 -78 l11 -52 926 2 c917 3 926 3
929 23 2 11 11 28 20 37 11 14 15 40 14 108 0 88 -1 90 -38 134 -21 25 -69 67
-108 93 -39 26 -80 55 -91 64 -11 9 -50 26 -86 38 -36 12 -81 32 -99 46 -18
13 -47 27 -64 31 -46 10 -106 43 -106 58 0 7 -21 54 -46 103 -41 81 -50 92
-101 121 -30 18 -63 32 -73 32 -26 0 -37 19 -43 75 -9 76 -29 138 -57 173 -91
115 -107 132 -132 137 -15 4 -30 11 -34 16 -10 16 7 49 25 49 10 0 26 9 37 21
10 12 35 29 54 39 40 21 52 33 172 172 13 15 34 49 47 75 13 26 28 55 33 63 5
8 20 40 34 70 43 94 51 105 76 105 20 0 23 -6 26 -45 2 -24 8 -50 14 -57 5 -7
7 -17 3 -23 -4 -6 -2 -16 3 -23 6 -7 13 -47 17 -90 4 -42 11 -80 16 -83 5 -3
9 -25 9 -49 0 -24 4 -46 9 -50 5 -3 8 -17 5 -30 -2 -14 0 -25 7 -25 6 0 10
-17 9 -42 -4 -67 -2 -72 14 -58 25 20 54 92 61 150 3 30 10 66 16 80 5 14 13
53 19 88 26 161 31 185 42 205 12 24 29 91 29 120 0 9 4 17 9 17 4 0 11 32 15
72 4 39 14 86 21 104 10 24 14 78 14 186 -1 147 -1 152 -16 118 -15 -32 -39
-172 -51 -295 -3 -27 -9 -55 -15 -62 -5 -6 -8 -32 -7 -57 2 -26 -3 -52 -9 -58
-7 -7 -12 -22 -12 -35 0 -13 -4 -23 -9 -23 -4 0 -11 -17 -15 -37 -3 -21 -11
-60 -17 -88 -6 -27 -11 -65 -12 -82 0 -18 -3 -33 -7 -33 -5 0 -20 -55 -46
-180 l-6 -25 -15 29 c-8 16 -16 62 -18 105 -4 95 -19 213 -30 231 -4 7 -11 62
-15 122 -4 61 -12 113 -18 117 -5 3 -12 56 -15 116 -3 61 -3 104 0 97 4 -10 8
-10 19 -1 18 15 18 29 0 29 -9 0 -12 9 -9 28 3 22 2 24 -5 7 -8 -17 -10 -14
-15 20 -9 69 -23 116 -67 230 -38 99 -77 257 -95 387 -7 50 -32 73 -39 35 -5
-23 -22 -163 -30 -256 -4 -35 -2 -51 4 -45 6 6 11 40 12 77 1 38 5 70 10 73 4
3 8 14 8 25 0 10 4 19 10 19 15 0 27 -30 33 -85 4 -27 11 -81 17 -118 10 -68
10 -69 -20 -105 -16 -20 -30 -41 -30 -47 -1 -17 -58 -78 -68 -71 -6 3 -5 34 3
81 6 42 8 78 3 81 -4 3 -8 -11 -8 -30 0 -38 -12 -53 -27 -33 -6 6 -20 55 -32
107 -12 52 -27 107 -35 121 -7 15 -19 51 -26 80 -21 87 -40 161 -55 209 -7 25
-26 88 -40 140 -15 52 -31 102 -36 112 -5 9 -9 25 -10 35 0 10 -9 36 -19 58
l-18 40 5 -40z m-1884 -2106 c23 -18 53 -46 67 -62 l24 -30 -29 7 c-17 4 -52
17 -79 28 -46 20 -48 23 -43 54 3 18 3 35 -1 37 -4 2 -1 2 6 1 6 -2 31 -18 55
-35z m-121 -86 c9 -36 38 -66 38 -40 0 29 36 40 72 21 137 -71 311 -108 573
-124 133 -8 207 -16 221 -25 13 -8 37 -54 62 -117 74 -189 129 -298 150 -298
22 0 76 101 122 227 15 43 39 107 53 143 l25 65 98 6 c153 10 417 10 433 0 11
-7 12 -17 5 -43 l-10 -33 -214 0 c-118 0 -220 -4 -227 -8 -6 -4 -15 -22 -19
-40 -11 -54 -72 -227 -106 -304 -22 -50 -38 -75 -52 -79 -12 -2 -79 -3 -151
-2 l-130 3 -27 55 c-14 30 -48 113 -74 183 -33 91 -54 133 -71 144 -15 10 -74
20 -162 29 -146 13 -221 26 -336 55 -110 27 -237 68 -259 83 -22 14 -60 112
-50 128 10 16 28 2 36 -29z m-1106 -60 c-10 -10 -19 5 -10 18 6 11 8 11 12 0
2 -7 1 -15 -2 -18z m2287 -291 c-20 -63 -57 -152 -63 -152 -6 0 -50 98 -50
113 0 7 -7 21 -15 31 -32 42 -20 55 53 58 94 4 93 5 75 -50z m-2473 -246 c0
-3 -4 -8 -10 -11 -5 -3 -10 -1 -10 4 0 6 5 11 10 11 6 0 10 -2 10 -4z m46 -26
c20 0 17 -18 -4 -24 -10 -3 -33 -32 -52 -64 -19 -31 -40 -61 -47 -65 -8 -5
-11 -12 -8 -17 6 -10 -21 -76 -35 -85 -6 -4 -7 -11 -4 -17 4 -6 -1 -17 -12
-25 -15 -11 -16 -15 -5 -22 9 -6 10 -11 2 -15 -7 -5 -14 4 -17 23 -4 17 -11
31 -16 31 -5 0 -6 9 -3 20 4 12 1 28 -6 36 -10 13 -10 17 1 24 17 10 6 25 -18
25 -9 0 -18 8 -20 18 -2 12 3 17 18 17 14 0 24 9 31 29 6 18 24 35 49 47 22
11 40 25 40 32 0 10 -5 10 -22 2 -21 -10 -22 -10 -5 3 10 8 27 13 37 10 11 -3
20 -1 20 5 0 12 29 21 48 16 8 -2 20 -4 28 -4z m2680 -170 c7 -52 20 -128 29
-169 13 -65 14 -77 1 -89 -22 -22 -85 -29 -409 -42 -262 -11 -300 -11 -313 2
-16 16 -58 178 -75 287 -16 109 -41 100 299 104 163 1 333 3 377 2 l79 0 12
-95z m-2931 -390 c-3 -4 -15 -6 -27 -2 -21 5 -21 6 -2 12 21 8 37 3 29 -10z"/>
<path d="M986 609 c-8 -12 -12 -27 -9 -32 3 -5 12 2 20 17 18 35 10 45 -11 15z"/>
<path d="M911 454 c0 -11 3 -14 6 -6 3 7 2 16 -1 19 -3 4 -6 -2 -5 -13z"/>
<path d="M3124 449 c-62 -31 -55 -130 10 -164 47 -25 84 -19 122 19 42 42 44
75 6 117 -21 24 -38 32 -72 35 -25 2 -55 -1 -66 -7z m97 -65 c14 -17 5 -40
-24 -58 -21 -13 -57 18 -57 51 0 20 5 23 34 23 18 0 39 -7 47 -16z"/>
<path d="M3580 420 c-46 -46 -28 -108 37 -130 77 -26 155 70 102 126 -30 32
-109 34 -139 4z m100 -35 c10 -12 10 -18 0 -30 -25 -30 -78 -7 -64 29 8 20 47
21 64 1z"/>
<path d="M2771 3134 c0 -11 3 -14 6 -6 3 7 2 16 -1 19 -3 4 -6 -2 -5 -13z"/>
<path d="M2757 3070 c-4 -14 -14 -63 -22 -109 -7 -46 -16 -85 -19 -88 -14 -15
-36 9 -36 39 0 18 -9 65 -19 103 -29 107 -27 29 4 -130 14 -72 25 -131 25
-132 0 -2 7 -3 15 -3 10 0 15 10 15 28 0 15 12 78 26 141 14 62 24 127 22 145
-3 30 -3 30 -11 6z"/>
<path d="M3080 3032 c-20 -16 -24 -30 -28 -99 -4 -74 -3 -82 16 -92 27 -14 68
3 76 33 10 37 6 120 -7 145 -16 32 -29 35 -57 13z"/>
<path d="M4121 3004 c-18 -23 -21 -41 -21 -123 0 -104 11 -136 45 -129 33 6
45 47 45 150 0 75 -4 100 -16 112 -21 22 -29 20 -53 -10z"/>
<path d="M1442 2980 c0 -14 2 -19 5 -12 2 6 2 18 0 25 -3 6 -5 1 -5 -13z"/>
<path d="M1855 2813 c-3 -21 -8 -49 -11 -63 -16 -79 -17 -85 -3 -72 20 19 29
15 29 -13 0 -16 -6 -25 -15 -25 -8 0 -15 -7 -15 -15 0 -8 5 -15 10 -15 6 0 13
7 16 15 4 8 12 15 20 15 8 0 11 6 7 16 -3 9 -6 55 -7 102 -1 56 -5 87 -13 89
-7 3 -14 -11 -18 -34z"/>
<path d="M5054 2685 c-3 -14 -4 -32 -1 -40 4 -8 0 -27 -8 -42 -8 -15 -15 -39
-15 -53 0 -14 -7 -38 -15 -54 -8 -15 -15 -35 -15 -44 0 -42 59 63 63 113 3 27
32 26 33 -1 1 -11 6 -29 12 -40 11 -18 11 -17 13 6 2 37 -2 74 -9 85 -4 6 -7
22 -8 37 -3 60 -38 82 -50 33z"/>
<path d="M1810 2630 c0 -5 5 -10 10 -10 6 0 10 5 10 10 0 6 -4 10 -10 10 -5 0
-10 -4 -10 -10z"/>
<path d="M1897 2583 c-12 -11 -8 -23 8 -23 8 0 15 7 15 15 0 16 -12 20 -23 8z"/>
<path d="M1921 2488 c0 -27 4 -48 9 -48 11 0 11 21 0 65 -7 27 -8 25 -9 -17z"/>
<path d="M1941 2414 c0 -11 3 -14 6 -6 3 7 2 16 -1 19 -3 4 -6 -2 -5 -13z"/>
<path d="M4993 2360 c0 -25 2 -35 4 -22 2 12 2 32 0 45 -2 12 -4 2 -4 -23z"/>
<path d="M1920 2360 c0 -11 7 -20 15 -20 9 0 15 -9 15 -24 0 -14 5 -28 10 -31
11 -7 13 37 4 73 -8 28 -44 30 -44 2z"/>
<path d="M5120 2345 c0 -14 4 -25 9 -25 4 0 6 11 3 25 -2 14 -6 25 -8 25 -2 0
-4 -11 -4 -25z"/>
<path d="M1923 2280 c0 -25 2 -35 4 -22 2 12 2 32 0 45 -2 12 -4 2 -4 -23z"/>
<path d="M1971 2254 c0 -11 3 -14 6 -6 3 7 2 16 -1 19 -3 4 -6 -2 -5 -13z"/>
<path d="M2176 2241 c-4 -5 -8 -42 -10 -83 -2 -40 -2 -57 1 -38 2 19 9 38 15
41 14 9 23 89 10 89 -6 0 -13 -4 -16 -9z"/>
<path d="M2004 2151 c0 -54 2 -67 8 -49 5 14 5 48 0 74 -9 48 -9 47 -8 -25z"/>
<path d="M2203 2163 c-15 -6 -18 -83 -3 -83 6 0 10 -18 10 -40 0 -28 4 -40 14
-40 8 0 17 -8 20 -17 3 -10 3 4 1 31 -3 26 -12 68 -20 93 -8 24 -13 49 -10 54
7 10 6 10 -12 2z"/>
<path d="M1780 2064 c0 -8 5 -12 10 -9 6 3 10 10 10 16 0 5 -4 9 -10 9 -5 0
-10 -7 -10 -16z"/>
<path d="M2134 2056 c-7 -20 2 -46 16 -46 13 0 13 47 0 55 -6 3 -13 -1 -16 -9z"/>
<path d="M1570 2038 c-11 -24 -10 -31 5 -55 23 -34 28 -22 17 37 l-9 45 -13
-27z"/>
<path d="M2080 1955 c0 -8 9 -15 20 -15 11 0 20 7 20 15 0 8 -9 15 -20 15 -11
0 -20 -7 -20 -15z"/>
<path d="M2240 1914 c0 -21 4 -33 10 -29 6 3 10 13 10 21 0 8 5 14 10 14 6 0
10 7 10 15 0 8 -9 15 -20 15 -16 0 -20 -7 -20 -36z"/>
<path d="M2277 1883 c-4 -3 -7 -15 -7 -25 0 -10 -7 -18 -15 -18 -8 0 -15 -7
-15 -15 0 -11 11 -15 40 -15 45 0 47 4 24 48 -17 35 -17 35 -27 25z"/>
<path d="M1480 1877 c0 -7 89 -183 117 -231 11 -18 13 -18 13 -4 0 18 -76 169
-90 178 -4 3 -14 19 -23 35 -9 17 -16 27 -17 22z"/>
<path d="M1627 1808 c7 -41 21 -68 33 -68 15 0 12 20 -2 20 -8 1 -6 6 5 14 16
13 16 14 -5 29 l-23 15 25 10 c25 11 25 11 -7 11 -31 1 -32 0 -26 -31z"/>
<path d="M5042 1780 c0 -14 2 -19 5 -12 2 6 2 18 0 25 -3 6 -5 1 -5 -13z"/>
<path d="M3488 1325 c-119 -48 -172 -102 -133 -135 21 -18 80 -3 188 47 101
48 110 58 72 89 -36 29 -54 29 -127 -1z"/>
<path d="M1230 1270 c0 -5 5 -10 10 -10 6 0 10 5 10 10 0 6 -4 10 -10 10 -5 0
-10 -4 -10 -10z"/>
<path d="M1700 1239 c0 -5 5 -7 10 -4 6 3 10 8 10 11 0 2 -4 4 -10 4 -5 0 -10
-5 -10 -11z"/>
<path d="M1610 1090 c0 -5 7 -10 16 -10 8 0 12 5 9 10 -3 6 -10 10 -16 10 -5
0 -9 -4 -9 -10z"/>
<path d="M1128 683 c7 -3 16 -2 19 1 4 3 -2 6 -13 5 -11 0 -14 -3 -6 -6z"/>
<path d="M6393 60 c0 -36 2 -50 4 -32 2 17 2 47 0 65 -2 17 -4 3 -4 -33z"/>
<path d="M446 19 c-73 -12 -46 -19 72 -19 93 0 122 3 122 13 0 14 -122 18
-194 6z"/>
</g>
</svg>
